<?xml version="1.0" standalone="no"?>
<!DOCTYPE svg PUBLIC "-//W3C//DTD SVG 20010904//EN"
 "http://www.w3.org/TR/2001/REC-SVG-20010904/DTD/svg10.dtd">
<svg version="1.0" xmlns="http://www.w3.org/2000/svg"
 width="346.000000pt" height="387.000000pt" viewBox="0 0 346.000000 387.000000"
 preserveAspectRatio="xMidYMid meet">

<g transform="translate(0.000000,387.000000) scale(0.100000,-0.100000)"
fill="#000000" stroke="none">
<path d="M1574 3781 c-54 -32 -166 -97 -248 -144 l-148 -85 67 -39 c37 -21
149 -85 248 -143 l182 -105 5 -286 5 -287 243 140 242 140 0 291 -1 292 -192
110 c-105 61 -217 124 -247 142 l-56 32 -100 -58z"/>
<path d="M275 3031 c-132 -76 -239 -142 -238 -146 0 -5 108 -70 240 -146 l238
-137 3 -286 c2 -219 5 -286 15 -285 6 0 118 62 247 138 l235 137 3 289 2 290
-92 53 c-51 29 -163 93 -248 142 -85 49 -157 90 -160 90 -3 0 -113 -63 -245
-139z"/>
<path d="M2585 3031 c-132 -76 -239 -142 -239 -147 1 -4 109 -70 240 -145
l239 -138 5 -289 5 -290 245 142 245 142 0 289 0 290 -245 142 c-135 78 -247
143 -250 143 -3 0 -113 -63 -245 -139z"/>
<path d="M1645 2486 c-11 -8 -120 -71 -242 -141 l-223 -128 53 -32 c28 -17
141 -82 250 -144 l197 -114 0 -283 c0 -156 2 -284 5 -284 3 0 114 62 245 138
l240 137 0 290 c0 266 -1 291 -17 301 -66 41 -476 274 -481 273 -4 0 -16 -6
-27 -13z"/>
<path d="M2583 1696 c-134 -78 -243 -143 -243 -146 0 -3 110 -68 245 -145
l244 -140 1 -287 c0 -159 2 -288 4 -288 2 0 87 48 188 106 100 58 211 122 246
142 l62 36 0 287 0 287 -232 135 c-128 74 -242 139 -253 144 -17 8 -61 -14
-262 -131z"/>
<path d="M268 1692 c-131 -75 -238 -139 -238 -142 0 -3 110 -68 245 -145 l245
-140 0 -288 c0 -159 4 -287 8 -285 5 2 118 66 251 142 l241 139 -2 289 -3 289
-240 139 c-132 77 -247 140 -255 140 -8 0 -122 -62 -252 -138z"/>
<path d="M1435 1034 c-126 -74 -236 -138 -243 -143 -8 -4 61 -49 185 -121 109
-62 222 -129 250 -147 l53 -33 2 -283 3 -283 243 140 242 140 0 291 0 290
-242 140 c-134 77 -247 141 -253 142 -5 1 -113 -59 -240 -133z"/>
</g>
</svg>
